<?xml version="1.0" encoding="UTF-8"?>
<svg version="1.1" xmlns="http://www.w3.org/2000/svg" width="1600px" height="410px" viewBox="0 0 320 82">
<path d="M0 0 C2.625 -0.1875 2.625 -0.1875 5 0 C5.33 0.99 5.66 1.98 6 3 C12.93 3.495 12.93 3.495 20 4 C20 5.98 20 7.96 20 10 C17.36 10 14.72 10 12 10 C12 10.99 12 11.98 12 13 C15.3 13 18.6 13 22 13 C22 10.03 22 7.06 22 4 C28.93 4 35.86 4 43 4 C43 11.59 43 19.18 43 27 C39.720625 27.020625 36.44125 27.04125 33.0625 27.0625 C31.50994507 27.07615601 31.50994507 27.07615601 29.92602539 27.09008789 C28.71160767 27.09383423 28.71160767 27.09383423 27.47265625 27.09765625 C26.22367554 27.10551147 26.22367554 27.10551147 24.94946289 27.11352539 C23 27 23 27 22 26 C21.95907063 23.66702567 21.95758277 21.33294775 22 19 C18.04 19.495 18.04 19.495 14 20 C16.31 21.65 18.62 23.3 21 25 C20.67 25.66 20.34 26.32 20 27 C26.27 27.33 32.54 27.66 39 28 C39 36.58 39 45.16 39 54 C36.69 54 34.38 54 32 54 C32 53.34 32 52.68 32 52 C23.75 52 15.5 52 7 52 C7 52.66 7 53.32 7 54 C5.02 54 3.04 54 1 54 C0.67 46.74 0.34 39.48 0 32 C-1.98 32.495 -1.98 32.495 -4 33 C-5.5625 31.1875 -5.5625 31.1875 -7 29 C-5.66073876 24.98221628 -3.50865531 24.21976152 0 22 C0.66 21.34 1.32 20.68 2 20 C-0.64 19.67 -3.28 19.34 -6 19 C-5.979375 17.906875 -5.95875 16.81375 -5.9375 15.6875 C-5.81455548 12.05615809 -5.81455548 12.05615809 -7 9 C-5.81755753 7.46602057 -4.62687758 5.93329797 -3.32421875 4.5 C-1.78728071 2.82697958 -1.78728071 2.82697958 0 0 Z M2 10 C1.01 11.485 1.01 11.485 0 13 C1.65 13 3.3 13 5 13 C5.33 12.01 5.66 11.02 6 10 C4.68 10 3.36 10 2 10 Z M29 10 C29 13.3 29 16.6 29 20 C31.64 20 34.28 20 37 20 C37 16.7 37 13.4 37 10 C34.36 10 31.72 10 29 10 Z M8 24 C6.9739266 25.31337396 5.97272675 26.64664105 5 28 C7.64 28 10.28 28 13 28 C11.68799596 26.64567325 10.35368596 25.31266518 9 24 C8.67 24 8.34 24 8 24 Z M7 35 C7 35.66 7 36.32 7 37 C15.25 37 23.5 37 32 37 C32 36.34 32 35.68 32 35 C23.75 35 15.5 35 7 35 Z M7 43 C7 43.99 7 44.98 7 46 C15.25 46 23.5 46 32 46 C32 45.01 32 44.02 32 43 C23.75 43 15.5 43 7 43 Z " fill="#FFFFFF" transform="translate(218,2)"/>
<path d="M0 0 C6.6 0 13.2 0 20 0 C20 2.31 20 4.62 20 7 C17.03 7 14.06 7 11 7 C10.34 10.3 9.68 13.6 9 17 C11.97 17 14.94 17 18 17 C18.33 22.94 18.66 28.88 19 35 C19.67857426 30.24998021 20.16332422 25.93694913 20.31640625 21.19140625 C20.35451416 20.07193604 20.39262207 18.95246582 20.43188477 17.79907227 C20.47498779 16.40100342 20.51809082 15.00293457 20.5625 13.5625 C20.7790625 6.8490625 20.7790625 6.8490625 21 0 C30.9 0 40.8 0 51 0 C51 1.98 51 3.96 51 6 C43.08 6 35.16 6 27 6 C27 7.65 27 9.3 27 11 C34.59 11 42.18 11 50 11 C50 12.98 50 14.96 50 17 C46.04 17 42.08 17 38 17 C38 18.98 38 20.96 38 23 C41.63 23 45.26 23 49 23 C49.38146552 41.45869253 49.38146552 41.45869253 47 49 C45 51 45 51 42.8359375 51.1953125 C42.02382812 51.17210937 41.21171875 51.14890625 40.375 51.125 C39.55773437 51.10695312 38.74046875 51.08890625 37.8984375 51.0703125 C37.27195313 51.04710937 36.64546875 51.02390625 36 51 C35.505 48.03 35.505 48.03 35 45 C37.31 45 39.62 45 42 45 C41.98839844 44.43152344 41.97679687 43.86304688 41.96484375 43.27734375 C41.90776806 38.39329516 42.18043228 33.81496035 43 29 C41.35 29 39.7 29 38 29 C37.91363281 29.67804687 37.82726562 30.35609375 37.73828125 31.0546875 C36.71457105 37.83559357 35.16770449 44.40468403 31 50 C28.8359375 50.7734375 28.8359375 50.7734375 27 51 C26.01 49.68 25.02 48.36 24 47 C24.598125 46.278125 25.19625 45.55625 25.8125 44.8125 C31.00962237 36.99838693 31.46971887 26.12449261 32 17 C30.35 17 28.7 17 27 17 C27.05220703 18.39798828 27.05220703 18.39798828 27.10546875 19.82421875 C27.34689282 31.19414304 26.05853953 41.64203811 21 52 C18.5 50.6875 18.5 50.6875 16 49 C16 48.01 16 47.02 16 46 C13.69 46 11.38 46 9 46 C9 46.99 9 47.98 9 49 C7.02 49 5.04 49 3 49 C2.67 43.39 2.34 37.78 2 32 C1.01 31.67 0.02 31.34 -1 31 C-2.328125 29.296875 -2.328125 29.296875 -3 27 C-2.171875 24.265625 -2.171875 24.265625 -0.75 21.25 C1.38735729 16.49772875 2.92351702 12.08882863 4 7 C2.68 7 1.36 7 0 7 C0 4.69 0 2.38 0 0 Z M9 23 C9 28.28 9 33.56 9 39 C9.99 39 10.98 39 12 39 C12 33.72 12 28.44 12 23 C11.01 23 10.02 23 9 23 Z " fill="#FFFFFF" transform="translate(156,4)"/>
<path d="M0 0 C5.55076207 2.77538103 9.09417081 5.41102026 12 11 C13.32767888 17.7338649 12.75257089 24.74606429 12.5 31.5625 C12.4598208 33.44849211 12.42332784 35.33456656 12.390625 37.22070312 C12.30297803 41.81585328 12.16522684 46.40701167 12 51 C16.62 51 21.24 51 26 51 C24.89224888 55.43100449 23.06031463 57.40834529 20 60.5625 C15.38054296 65.44793956 11.07328291 70.46708518 6.875 75.72265625 C5.32022763 77.61105685 3.84786476 79.39886718 2 81 C1.34 81 0.68 81 0 81 C0 54.27 0 27.54 0 0 Z " fill="#4263E7" transform="translate(46,0)"/>
<path d="M0 0 C2.31 0 4.62 0 7 0 C7 2.97 7 5.94 7 9 C7.67546875 8.566875 8.3509375 8.13375 9.046875 7.6875 C9.93890625 7.130625 10.8309375 6.57375 11.75 6 C12.63171875 5.443125 13.5134375 4.88625 14.421875 4.3125 C17 3 17 3 21 3 C21.66 4.32 22.32 5.64 23 7 C14.86498856 13.59839817 14.86498856 13.59839817 10.5 15.625 C9.675 16.07875 8.85 16.5325 8 17 C7.505 19.475 7.505 19.475 7 22 C10.63 21.67 14.26 21.34 18 21 C18.66 19.02 19.32 17.04 20 15 C21.98 15.66 23.96 16.32 26 17 C25.38473831 24.50619257 25.38473831 24.50619257 23.74609375 26.609375 C21.52537909 28.37799786 20.36201791 28.34957083 17.55078125 28.29296875 C16.70322266 28.28330078 15.85566406 28.27363281 14.98242188 28.26367188 C13.66081055 28.2259668 13.66081055 28.2259668 12.3125 28.1875 C11.41982422 28.17396484 10.52714844 28.16042969 9.60742188 28.14648438 C7.40433834 28.11114079 5.20247418 28.06180493 3 28 C3 29.65 3 31.3 3 33 C10.26 33 17.52 33 25 33 C25 34.98 25 36.96 25 39 C17.74 39 10.48 39 3 39 C3 43.62 3 48.24 3 53 C0.69 53 -1.62 53 -4 53 C-4 48.38 -4 43.76 -4 39 C-10.93 39 -17.86 39 -25 39 C-25 37.02 -25 35.04 -25 33 C-18.07 33 -11.14 33 -4 33 C-4 31.35 -4 29.7 -4 28 C-2.35 27.67 -0.7 27.34 1 27 C0.34 25.02 -0.32 23.04 -1 21 C-2.98 21.33 -4.96 21.66 -7 22 C-10 18.25 -10 18.25 -10 16 C-7.03 15.01 -4.06 14.02 -1 13 C-0.67 8.71 -0.34 4.42 0 0 Z " fill="#FFFFFF" transform="translate(123,3)"/>
<path d="M0 0 C4.875 0.875 4.875 0.875 6 2 C8.37338639 2.15971977 10.72118272 2.2592433 13.09765625 2.31640625 C13.80651474 2.33718735 14.51537323 2.35796844 15.24571228 2.37937927 C17.51787305 2.44494598 19.79015264 2.5037923 22.0625 2.5625 C23.59962183 2.60567849 25.1367315 2.64929255 26.67382812 2.69335938 C30.4490959 2.80063449 34.2244836 2.90188137 38 3 C38 5.31 38 7.62 38 10 C35.36 10 32.72 10 30 10 C30.01571045 11.15786011 30.01571045 11.15786011 30.03173828 12.33911133 C30.07326454 15.83020788 30.09931557 19.32125249 30.125 22.8125 C30.14175781 24.02744141 30.15851563 25.24238281 30.17578125 26.49414062 C30.18544922 28.23920898 30.18544922 28.23920898 30.1953125 30.01953125 C30.21102295 31.62985229 30.21102295 31.62985229 30.22705078 33.27270508 C30 36 30 36 28 39 C25.08835102 40.08875763 22.33481334 40.1078649 19.25 40.0625 C18.45078125 40.05347656 17.6515625 40.04445312 16.828125 40.03515625 C16.22484375 40.02355469 15.6215625 40.01195312 15 40 C14.01 36.535 14.01 36.535 13 33 C16.3 33 19.6 33 23 33 C23 25.41 23 17.82 23 10 C17.39 10 11.78 10 6 10 C5.67 8.68 5.34 7.36 5 6 C1.71383394 9.50422364 1.58816198 12.2387545 1.48828125 16.953125 C1.47033005 17.61334656 1.45237885 18.27356812 1.43388367 18.95379639 C1.37991191 21.05246689 1.34592957 23.15091177 1.3125 25.25 C1.27931505 26.67711464 1.24482429 28.10419956 1.20898438 29.53125 C1.1241953 33.02061652 1.05732112 36.51006191 1 40 C-1.31 40 -3.62 40 -6 40 C-6.33 33.07 -6.66 26.14 -7 19 C-8.65 19.99 -10.3 20.98 -12 22 C-12.66 19.69 -13.32 17.38 -14 15 C-13.32453125 14.41992188 -12.6490625 13.83984375 -11.953125 13.2421875 C-7.26410786 9.13590949 -3.07572902 5.45242872 0 0 Z " fill="#FFFFFF" transform="translate(282,16)"/>
<path d="M0 0 C4.29 0 8.58 0 13 0 C13 11.55 13 23.1 13 35 C7.55040729 33.63760182 5.36291545 31.24292063 1.86328125 26.94140625 C-2.58038874 19.33169929 -0.5733367 8.41601643 0 0 Z " fill="#4363E5" transform="translate(24,46)"/>
<path d="M0 0 C0.99 0 1.98 0 3 0 C3 11.55 3 23.1 3 35 C-1.29 35 -5.58 35 -10 35 C-11.55048135 12.24046518 -11.55048135 12.24046518 -5.5625 5.125 C-3.06640625 2.6953125 -3.06640625 2.6953125 -1 1 C-0.67 0.67 -0.34 0.34 0 0 Z " fill="#4363E6" transform="translate(34,0)"/>
<path d="M0 0 C0 10.89 0 21.78 0 33 C-4.49198014 30.75400993 -6.63595782 28.37571561 -9.8125 24.625 C-10.32748047 24.0475 -10.84246094 23.47 -11.37304688 22.875 C-12.83203125 21.1640625 -12.83203125 21.1640625 -15 18 C-14.67918323 14.80050305 -13.40698689 12.94948446 -11.34765625 10.546875 C-10.81849609 9.928125 -10.28933594 9.309375 -9.74414062 8.671875 C-9.18919922 8.03765625 -8.63425781 7.4034375 -8.0625 6.75 C-7.51142578 6.1003125 -6.96035156 5.450625 -6.39257812 4.78125 C-2.25920759 0 -2.25920759 0 0 0 Z " fill="#EE3240" transform="translate(15,24)"/>
<path d="M0 0 C1.98 0.66 3.96 1.32 6 2 C5.55535425 4.89019739 4.85263416 6.18650989 3 8.53125 C0.17212982 12.68412853 0.33093301 16.98958909 0.25 21.875 C0.22035156 22.75414063 0.19070312 23.63328125 0.16015625 24.5390625 C0.08994441 26.69222545 0.04265119 28.84611485 0 31 C-2.31 31 -4.62 31 -7 31 C-7.33 27.37 -7.66 23.74 -8 20 C-9.65 20.66 -11.3 21.32 -13 22 C-13.66 19.69 -14.32 17.38 -15 15 C-14.41992188 14.5875 -13.83984375 14.175 -13.2421875 13.75 C-7.79730328 9.72473906 -3.738736 5.64475828 0 0 Z " fill="#FFFFFF" transform="translate(112,2)"/>
<path d="M0 0 C9.57 0 19.14 0 29 0 C29 2.31 29 4.62 29 7 C19.43 7 9.86 7 0 7 C0 4.69 0 2.38 0 0 Z " fill="#FFFFFF" transform="translate(289,5)"/>
<path d="M0 0 C3.95354129 1.97677064 5.7255675 3.5785176 8.625 6.8125 C9.40101562 7.66457031 10.17703125 8.51664063 10.9765625 9.39453125 C13 12 13 12 15 17 C10.05 17 5.1 17 0 17 C0 11.39 0 5.78 0 0 Z " fill="#EF3240" transform="translate(67,24)"/>
<path d="M0 0 C4.75 0.75 4.75 0.75 7 3 C2.99228138 9.78954684 -1.60782961 15.30814694 -8 20 C-8.66 20 -9.32 20 -10 20 C-11.40112994 15.00847458 -11.40112994 15.00847458 -11 12 C-9.19601198 9.85448026 -7.24224026 8.30658523 -5.015625 6.609375 C-2.64410673 4.71583715 -1.31890083 2.72023296 0 0 Z " fill="#FFFFFF" transform="translate(279,3)"/>
<path d="M0 0 C0.99 0.33 1.98 0.66 3 1 C4.1875 4.0625 4.1875 4.0625 5 7 C5.66 4.69 6.32 2.38 7 0 C8.32 0.33 9.64 0.66 11 1 C11.66 3.31 12.32 5.62 13 8 C13.99 5.36 14.98 2.72 16 0 C16.66 0 17.32 0 18 0 C17.68917128 1.75029762 17.37626821 3.50022694 17.0625 5.25 C16.80146484 6.71179688 16.80146484 6.71179688 16.53515625 8.203125 C16.09620271 10.49721795 15.59651408 12.74291971 15 15 C13.68 14.67 12.36 14.34 11 14 C10.34 11.69 9.68 9.38 9 7 C8.01 9.64 7.02 12.28 6 15 C5.01 15 4.02 15 3 15 C2.491217 13.44033782 1.99336531 11.87710759 1.5 10.3125 C1.2215625 9.44238281 0.943125 8.57226562 0.65625 7.67578125 C0.00149195 5.00608323 -0.11831495 2.73603316 0 0 Z " fill="#FFFFFF" transform="translate(232,67)"/>
<path d="M0 0 C1.32 0 2.64 0 4 0 C4.99 2.97 5.98 5.94 7 9 C8.32 6.03 9.64 3.06 11 0 C11.99 0 12.98 0 14 0 C14 4.95 14 9.9 14 15 C13.34 15 12.68 15 12 15 C11.67 13.02 11.34 11.04 11 9 C10.34 10.98 9.68 12.96 9 15 C7.0625 14.6875 7.0625 14.6875 5 14 C4.67 13.01 4.34 12.02 4 11 C3.67 12.32 3.34 13.64 3 15 C2.01 15 1.02 15 0 15 C0 10.05 0 5.1 0 0 Z " fill="#FFFFFF" transform="translate(140,67)"/>
<path d="M0 0 C8.625 -0.25 8.625 -0.25 12 2 C12.31845551 5.10494126 11.99424641 7.01726077 11 10 C11.87914688 12.6569191 11.87914688 12.6569191 13 15 C10.18127263 14.61121002 9.22804402 14.29189635 7.4375 12 C6.963125 11.34 6.48875 10.68 6 10 C5.01 9.67 4.02 9.34 3 9 C3 10.98 3 12.96 3 15 C2.01 15 1.02 15 0 15 C0 10.05 0 5.1 0 0 Z M3 3 C3 4.32 3 5.64 3 7 C4.98 6.67 6.96 6.34 9 6 C9 5.01 9 4.02 9 3 C7.02 3 5.04 3 3 3 Z " fill="#FFFFFF" transform="translate(188,67)"/>
<path d="M0 0 C2.9375 0.875 2.9375 0.875 4.3125 2.9375 C4.51875 3.576875 4.725 4.21625 4.9375 4.875 C2.27083333 4.20833333 -0.39583333 3.54166667 -3.0625 2.875 C-3.0625 3.865 -3.0625 4.855 -3.0625 5.875 C-1.928125 6.019375 -0.79375 6.16375 0.375 6.3125 C3.9375 6.875 3.9375 6.875 4.9375 7.875 C5.125 10.3125 5.125 10.3125 4.9375 12.875 C2.9375 14.875 2.9375 14.875 -0.5 15.1875 C-4.0625 14.875 -4.0625 14.875 -6 13.5 C-7.0625 11.875 -7.0625 11.875 -7.0625 9.875 C-6.0725 9.875 -5.0825 9.875 -4.0625 9.875 C-4.0625 10.535 -4.0625 11.195 -4.0625 11.875 C-2.4125 11.875 -0.7625 11.875 0.9375 11.875 C0.9375 11.215 0.9375 10.555 0.9375 9.875 C-1.3725 8.885 -3.6825 7.895 -6.0625 6.875 C-6.25 4.5 -6.25 4.5 -6.0625 1.875 C-3.0625 -0.125 -3.0625 -0.125 0 0 Z " fill="#FFFFFF" transform="translate(124.0625,67.125)"/>
<path d="M0 0 C0.33 1.32 0.66 2.64 1 4 C0.01 4 -0.98 4 -2 4 C-2 3.34 -2 2.68 -2 2 C-3.65 2 -5.3 2 -7 2 C-6.06658677 4.42429708 -6.06658677 4.42429708 -2.5 5.375 C1 7 1 7 2.0625 9 C2 11 2 11 0 14 C-1.875 14.36328125 -1.875 14.36328125 -4 14.3125 C-4.70125 14.30863281 -5.4025 14.30476563 -6.125 14.30078125 C-8 14 -8 14 -10 12 C-10 11.01 -10 10.02 -10 9 C-9.13375 9.495 -9.13375 9.495 -8.25 10 C-5.80116138 11.27075898 -5.80116138 11.27075898 -2 11 C-2 10.34 -2 9.68 -2 9 C-3.134375 8.5875 -4.26875 8.175 -5.4375 7.75 C-9 6 -9 6 -10.125 4 C-10 2 -10 2 -9 0.1875 C-5.90521904 -1.6500262 -3.40384837 -0.7064591 0 0 Z " fill="#FFFFFF" transform="translate(313,68)"/>
<path d="M0 0 C3 1 3 1 4.38671875 3.65234375 C4.81597656 4.73644531 5.24523437 5.82054688 5.6875 6.9375 C6.34298828 8.55978516 6.34298828 8.55978516 7.01171875 10.21484375 C8 13 8 13 8 15 C6.68 14.67 5.36 14.34 4 14 C4 13.01 4 12.02 4 11 C2.02 11 0.04 11 -2 11 C-2.33 12.32 -2.66 13.64 -3 15 C-3.99 14.67 -4.98 14.34 -6 14 C-5.19074658 11.85294019 -4.37750887 9.7073817 -3.5625 7.5625 C-3.11003906 6.36753906 -2.65757812 5.17257813 -2.19140625 3.94140625 C-1 1 -1 1 0 0 Z M0 5 C-0.33 6.32 -0.66 7.64 -1 9 C0.32 8.67 1.64 8.34 3 8 C2.01 7.01 1.02 6.02 0 5 Z " fill="#FFFFFF" transform="translate(264,67)"/>
<path d="M0 0 C3 1 3 1 4.38671875 3.65234375 C4.81597656 4.73644531 5.24523437 5.82054688 5.6875 6.9375 C6.34298828 8.55978516 6.34298828 8.55978516 7.01171875 10.21484375 C8 13 8 13 8 15 C7.01 15 6.02 15 5 15 C4.67 13.68 4.34 12.36 4 11 C2.02 11 0.04 11 -2 11 C-2.33 12.32 -2.66 13.64 -3 15 C-3.99 14.67 -4.98 14.34 -6 14 C-5.19074658 11.85294019 -4.37750887 9.7073817 -3.5625 7.5625 C-3.11003906 6.36753906 -2.65757812 5.17257813 -2.19140625 3.94140625 C-1 1 -1 1 0 0 Z M1 5 C0.67 6.32 0.34 7.64 0 9 C0.99 8.67 1.98 8.34 3 8 C2.34 7.01 1.68 6.02 1 5 Z " fill="#FFFFFF" transform="translate(170,67)"/>
<path d="M0 0 C3.63 0 7.26 0 11 0 C11 0.99 11 1.98 11 3 C9.68 3 8.36 3 7 3 C7 6.96 7 10.92 7 15 C6.01 15 5.02 15 4 15 C4 11.04 4 7.08 4 3 C2.68 3 1.36 3 0 3 C0 2.01 0 1.02 0 0 Z " fill="#FFFFFF" transform="translate(211,67)"/>
<path d="M0 0 C3.16115776 1.36983503 3.9927092 1.9890638 6 5 C7.32 3.35 8.64 1.7 10 0 C10.99 0.33 11.98 0.66 13 1 C12.65066406 1.50789063 12.30132812 2.01578125 11.94140625 2.5390625 C9.19475288 6.69405656 7.3818364 9.90884805 7 15 C6.34 15 5.68 15 5 15 C4.731875 13.7625 4.46375 12.525 4.1875 11.25 C3.35251254 7.84397202 2.22822883 5.73464448 0 3 C0 2.01 0 1.02 0 0 Z " fill="#FFFFFF" transform="translate(280,67)"/>
<path d="M0 0 C0.99 0 1.98 0 3 0 C3 4.95 3 9.9 3 15 C2.01 15 1.02 15 0 15 C0 10.05 0 5.1 0 0 Z " fill="#FFFFFF" transform="translate(103,67)"/>
</svg>
