<svg width="934" height="565" viewBox="0 0 934 565" fill="none" xmlns="http://www.w3.org/2000/svg">
<mask id="path-1-outside-1_220_10" maskUnits="userSpaceOnUse" x="0" y="0" width="934" height="414" fill="black">
<rect fill="white" width="934" height="414"/>
<path d="M165.268 113.051C163.366 98.6541 159.425 86.1587 153.447 75.5648C147.469 64.6993 139.452 56.4143 129.398 50.7099C119.615 44.7338 107.795 41.7458 93.9357 41.7458C80.6203 41.7458 69.479 45.5487 60.5115 53.1546C51.8157 60.7605 47.4678 70.132 47.4678 81.2692C47.4678 90.5049 50.0494 98.5182 55.2125 105.309C60.6473 112.1 68.392 118.348 78.4464 124.052C88.5009 129.485 100.457 135.19 114.316 141.166C124.643 145.512 135.105 150.401 145.702 155.834C156.3 160.995 166.083 167.243 175.051 174.577C184.018 181.911 191.219 190.468 196.654 200.247C202.361 209.754 205.214 221.163 205.214 234.473C205.214 250.228 201.002 264.218 192.578 276.442C184.426 288.665 172.741 298.173 157.523 304.964C142.306 311.755 124.371 315.15 103.718 315.15C92.3052 315.15 80.2128 313.384 67.4409 309.853C54.669 306.593 42.9841 301.568 32.3862 294.777L33.609 312.298H5.89139L5.07615 219.805H28.3101C31.2992 242.894 39.8591 260.415 53.9897 272.367C68.1203 284.047 85.1041 289.888 104.941 289.888C114.996 289.888 123.963 288.122 131.844 284.591C139.724 280.788 145.838 275.762 150.186 269.515C154.806 262.995 157.116 255.661 157.116 247.512C157.116 236.918 153.855 228.226 147.333 221.435C140.811 214.644 132.523 208.804 122.469 203.914C112.414 199.025 101.952 194.271 91.0824 189.653C78.854 184.492 67.305 179.059 56.4353 173.355C45.5657 167.379 35.9188 160.723 27.4948 153.389C19.3426 145.783 12.8208 137.091 7.92943 127.312C3.30982 117.533 1 105.988 1 92.678C1 84.8005 2.49458 76.5155 5.48374 67.8231C8.4729 58.859 13.3643 50.574 20.1578 42.9682C27.2231 35.3623 36.5982 29.1146 48.2831 24.2251C59.968 19.3356 74.5062 16.8909 91.8976 16.8909C102.767 16.8909 114.588 18.5207 127.36 21.7803C140.404 24.7684 151.817 29.7937 161.599 36.8563L159.969 19.7431H188.094V113.051H165.268Z"/>
<path d="M361.314 287.035C369.194 287.035 374.765 285.406 378.026 282.146C381.287 278.615 383.325 273.725 384.14 267.478C384.955 261.23 385.363 254.167 385.363 246.29V188.431C385.363 168.873 382.238 154.34 375.988 144.833C370.009 135.325 360.634 130.572 347.862 130.572C339.982 130.572 332.101 132.337 324.221 135.869C316.612 139.4 310.362 143.746 305.471 148.907V250.364C305.471 254.71 305.335 260.007 305.063 266.255C304.791 272.231 304.248 278.071 303.433 283.776C308.052 283.233 312.808 282.961 317.699 282.961C322.59 282.689 326.667 282.553 329.928 282.553V308.631H230.878V287.035C238.758 287.035 244.329 285.406 247.59 282.146C251.122 278.615 253.16 273.725 253.704 267.478C254.519 261.23 254.927 254.167 254.927 246.29V70.2678C254.927 65.65 255.063 60.6247 255.334 55.1919C255.606 49.4875 256.014 43.6473 256.557 37.6712C251.938 37.9428 246.91 38.2145 241.476 38.4861C236.041 38.7578 231.557 39.0294 228.024 39.3011V12.8163C240.524 12.8163 250.715 12.273 258.595 11.1865C266.476 9.82826 272.59 8.19844 276.938 6.29696C281.557 4.3955 284.818 2.62984 286.721 1H305.471V122.422C310.906 117.805 317.156 113.73 324.221 110.199C331.558 106.667 339.031 103.815 346.64 101.642C354.248 99.469 361.178 98.3824 367.428 98.3824C391.885 98.3824 409.276 105.581 419.602 119.978C429.929 134.375 435.227 157.328 435.499 188.838L435.907 250.364C435.907 254.71 435.771 260.007 435.499 266.255C435.227 272.231 434.82 278.071 434.276 283.776C438.624 283.233 443.108 282.961 447.728 282.961C452.619 282.689 456.831 282.553 460.364 282.553V308.631H361.314V287.035Z"/>
<path d="M587.236 315.15C567.943 315.15 550.415 310.94 534.654 302.519C518.893 293.826 506.393 281.739 497.154 266.255C488.186 250.5 483.703 232.164 483.703 211.248C483.703 189.246 488.322 169.688 497.561 152.574C506.801 135.461 519.165 122.151 534.654 112.643C550.415 103.136 567.671 98.3824 586.421 98.3824C605.715 98.3824 623.106 102.729 638.595 111.421C654.085 120.114 666.313 132.201 675.281 147.685C684.52 163.168 689.139 181.504 689.139 202.692C689.139 224.966 684.656 244.66 675.688 261.773C666.992 278.615 654.9 291.789 639.411 301.297C624.193 310.532 606.802 315.15 587.236 315.15ZM589.274 290.295C601.503 290.295 610.878 286.492 617.4 278.886C623.921 271.28 628.405 261.637 630.851 249.957C633.568 238.005 634.927 225.781 634.927 213.286C634.927 202.692 633.976 191.962 632.074 181.096C630.443 170.231 627.726 160.452 623.921 151.759C620.117 142.795 615.09 135.733 608.84 130.572C602.59 125.139 594.981 122.422 586.013 122.422C574.057 122.694 564.546 126.633 557.481 134.239C550.415 141.845 545.252 151.488 541.991 163.168C539.002 174.849 537.507 187.208 537.507 200.247C537.507 214.915 539.274 229.312 542.806 243.437C546.339 257.291 551.91 268.7 559.518 277.664C567.127 286.356 577.046 290.567 589.274 290.295Z"/>
<path d="M716.15 412.533V390.937C724.031 390.937 729.601 389.172 732.862 385.64C736.395 382.381 738.569 377.627 739.384 371.379C740.199 365.132 740.607 358.069 740.607 350.191L741.014 169.688C741.014 164.798 741.014 159.637 741.014 154.204C741.286 148.771 741.83 143.203 742.645 137.498C738.025 137.77 732.862 138.042 727.156 138.313C721.721 138.585 717.237 138.857 713.704 139.128V112.643C726.204 112.643 736.259 112.1 743.868 111.014C751.748 109.655 757.727 108.026 761.803 106.124C766.151 104.223 769.276 102.457 771.178 100.827H788.705C789.249 103.544 789.656 106.803 789.928 110.606C790.2 114.409 790.471 117.94 790.743 121.2C799.711 113.323 809.222 107.618 819.276 104.087C829.331 100.284 838.977 98.3824 848.216 98.3824C864.521 98.3824 879.059 102.593 891.831 111.014C904.603 119.163 914.657 130.979 921.994 146.462C929.331 161.674 933 179.738 933 200.654C933 222.929 928.516 242.758 919.549 260.143C910.853 277.257 898.896 290.703 883.679 300.482C868.461 310.261 850.934 315.15 831.097 315.15C822.945 315.15 815.607 314.199 809.086 312.298C802.564 310.668 796.45 308.495 790.743 305.779V354.266C790.743 358.612 790.607 363.773 790.336 369.749C790.336 375.997 789.928 381.973 789.113 387.678C793.461 387.134 798.08 386.727 802.971 386.455C807.863 386.455 811.939 386.455 815.2 386.455V412.533H716.15ZM826.613 289.48C839.113 289.209 849.168 285.406 856.776 278.071C864.657 270.466 870.363 260.415 873.896 247.92C877.429 235.424 879.195 221.842 879.195 207.174C879.195 193.863 877.429 181.232 873.896 169.28C870.635 157.328 865.336 147.685 857.999 140.351C850.662 133.016 840.879 129.349 828.651 129.349C821.042 129.621 813.841 131.522 807.048 135.054C800.526 138.585 795.091 143.203 790.743 148.907C790.743 154.883 790.743 160.995 790.743 167.243C790.743 173.491 790.743 180.146 790.743 187.208C790.743 194.271 790.743 202.284 790.743 211.248C790.743 219.941 790.743 229.856 790.743 240.993C790.743 252.13 790.743 264.897 790.743 279.294C795.091 282.282 800.39 284.727 806.64 286.628C812.89 288.529 819.548 289.48 826.613 289.48Z"/>
</mask>
<path d="M165.268 113.051C163.366 98.6541 159.425 86.1587 153.447 75.5648C147.469 64.6993 139.452 56.4143 129.398 50.7099C119.615 44.7338 107.795 41.7458 93.9357 41.7458C80.6203 41.7458 69.479 45.5487 60.5115 53.1546C51.8157 60.7605 47.4678 70.132 47.4678 81.2692C47.4678 90.5049 50.0494 98.5182 55.2125 105.309C60.6473 112.1 68.392 118.348 78.4464 124.052C88.5009 129.485 100.457 135.19 114.316 141.166C124.643 145.512 135.105 150.401 145.702 155.834C156.3 160.995 166.083 167.243 175.051 174.577C184.018 181.911 191.219 190.468 196.654 200.247C202.361 209.754 205.214 221.163 205.214 234.473C205.214 250.228 201.002 264.218 192.578 276.442C184.426 288.665 172.741 298.173 157.523 304.964C142.306 311.755 124.371 315.15 103.718 315.15C92.3052 315.15 80.2128 313.384 67.4409 309.853C54.669 306.593 42.9841 301.568 32.3862 294.777L33.609 312.298H5.89139L5.07615 219.805H28.3101C31.2992 242.894 39.8591 260.415 53.9897 272.367C68.1203 284.047 85.1041 289.888 104.941 289.888C114.996 289.888 123.963 288.122 131.844 284.591C139.724 280.788 145.838 275.762 150.186 269.515C154.806 262.995 157.116 255.661 157.116 247.512C157.116 236.918 153.855 228.226 147.333 221.435C140.811 214.644 132.523 208.804 122.469 203.914C112.414 199.025 101.952 194.271 91.0824 189.653C78.854 184.492 67.305 179.059 56.4353 173.355C45.5657 167.379 35.9188 160.723 27.4948 153.389C19.3426 145.783 12.8208 137.091 7.92943 127.312C3.30982 117.533 1 105.988 1 92.678C1 84.8005 2.49458 76.5155 5.48374 67.8231C8.4729 58.859 13.3643 50.574 20.1578 42.9682C27.2231 35.3623 36.5982 29.1146 48.2831 24.2251C59.968 19.3356 74.5062 16.8909 91.8976 16.8909C102.767 16.8909 114.588 18.5207 127.36 21.7803C140.404 24.7684 151.817 29.7937 161.599 36.8563L159.969 19.7431H188.094V113.051H165.268Z" fill="#36434E"/>
<path d="M361.314 287.035C369.194 287.035 374.765 285.406 378.026 282.146C381.287 278.615 383.325 273.725 384.14 267.478C384.955 261.23 385.363 254.167 385.363 246.29V188.431C385.363 168.873 382.238 154.34 375.988 144.833C370.009 135.325 360.634 130.572 347.862 130.572C339.982 130.572 332.101 132.337 324.221 135.869C316.612 139.4 310.362 143.746 305.471 148.907V250.364C305.471 254.71 305.335 260.007 305.063 266.255C304.791 272.231 304.248 278.071 303.433 283.776C308.052 283.233 312.808 282.961 317.699 282.961C322.59 282.689 326.667 282.553 329.928 282.553V308.631H230.878V287.035C238.758 287.035 244.329 285.406 247.59 282.146C251.122 278.615 253.16 273.725 253.704 267.478C254.519 261.23 254.927 254.167 254.927 246.29V70.2678C254.927 65.65 255.063 60.6247 255.334 55.1919C255.606 49.4875 256.014 43.6473 256.557 37.6712C251.938 37.9428 246.91 38.2145 241.476 38.4861C236.041 38.7578 231.557 39.0294 228.024 39.3011V12.8163C240.524 12.8163 250.715 12.273 258.595 11.1865C266.476 9.82826 272.59 8.19844 276.938 6.29696C281.557 4.3955 284.818 2.62984 286.721 1H305.471V122.422C310.906 117.805 317.156 113.73 324.221 110.199C331.558 106.667 339.031 103.815 346.64 101.642C354.248 99.469 361.178 98.3824 367.428 98.3824C391.885 98.3824 409.276 105.581 419.602 119.978C429.929 134.375 435.227 157.328 435.499 188.838L435.907 250.364C435.907 254.71 435.771 260.007 435.499 266.255C435.227 272.231 434.82 278.071 434.276 283.776C438.624 283.233 443.108 282.961 447.728 282.961C452.619 282.689 456.831 282.553 460.364 282.553V308.631H361.314V287.035Z" fill="#36434E"/>
<path d="M587.236 315.15C567.943 315.15 550.415 310.94 534.654 302.519C518.893 293.826 506.393 281.739 497.154 266.255C488.186 250.5 483.703 232.164 483.703 211.248C483.703 189.246 488.322 169.688 497.561 152.574C506.801 135.461 519.165 122.151 534.654 112.643C550.415 103.136 567.671 98.3824 586.421 98.3824C605.715 98.3824 623.106 102.729 638.595 111.421C654.085 120.114 666.313 132.201 675.281 147.685C684.52 163.168 689.139 181.504 689.139 202.692C689.139 224.966 684.656 244.66 675.688 261.773C666.992 278.615 654.9 291.789 639.411 301.297C624.193 310.532 606.802 315.15 587.236 315.15ZM589.274 290.295C601.503 290.295 610.878 286.492 617.4 278.886C623.921 271.28 628.405 261.637 630.851 249.957C633.568 238.005 634.927 225.781 634.927 213.286C634.927 202.692 633.976 191.962 632.074 181.096C630.443 170.231 627.726 160.452 623.921 151.759C620.117 142.795 615.09 135.733 608.84 130.572C602.59 125.139 594.981 122.422 586.013 122.422C574.057 122.694 564.546 126.633 557.481 134.239C550.415 141.845 545.252 151.488 541.991 163.168C539.002 174.849 537.507 187.208 537.507 200.247C537.507 214.915 539.274 229.312 542.806 243.437C546.339 257.291 551.91 268.7 559.518 277.664C567.127 286.356 577.046 290.567 589.274 290.295Z" fill="#36434E"/>
<path d="M716.15 412.533V390.937C724.031 390.937 729.601 389.172 732.862 385.64C736.395 382.381 738.569 377.627 739.384 371.379C740.199 365.132 740.607 358.069 740.607 350.191L741.014 169.688C741.014 164.798 741.014 159.637 741.014 154.204C741.286 148.771 741.83 143.203 742.645 137.498C738.025 137.77 732.862 138.042 727.156 138.313C721.721 138.585 717.237 138.857 713.704 139.128V112.643C726.204 112.643 736.259 112.1 743.868 111.014C751.748 109.655 757.727 108.026 761.803 106.124C766.151 104.223 769.276 102.457 771.178 100.827H788.705C789.249 103.544 789.656 106.803 789.928 110.606C790.2 114.409 790.471 117.94 790.743 121.2C799.711 113.323 809.222 107.618 819.276 104.087C829.331 100.284 838.977 98.3824 848.216 98.3824C864.521 98.3824 879.059 102.593 891.831 111.014C904.603 119.163 914.657 130.979 921.994 146.462C929.331 161.674 933 179.738 933 200.654C933 222.929 928.516 242.758 919.549 260.143C910.853 277.257 898.896 290.703 883.679 300.482C868.461 310.261 850.934 315.15 831.097 315.15C822.945 315.15 815.607 314.199 809.086 312.298C802.564 310.668 796.45 308.495 790.743 305.779V354.266C790.743 358.612 790.607 363.773 790.336 369.749C790.336 375.997 789.928 381.973 789.113 387.678C793.461 387.134 798.08 386.727 802.971 386.455C807.863 386.455 811.939 386.455 815.2 386.455V412.533H716.15ZM826.613 289.48C839.113 289.209 849.168 285.406 856.776 278.071C864.657 270.466 870.363 260.415 873.896 247.92C877.429 235.424 879.195 221.842 879.195 207.174C879.195 193.863 877.429 181.232 873.896 169.28C870.635 157.328 865.336 147.685 857.999 140.351C850.662 133.016 840.879 129.349 828.651 129.349C821.042 129.621 813.841 131.522 807.048 135.054C800.526 138.585 795.091 143.203 790.743 148.907C790.743 154.883 790.743 160.995 790.743 167.243C790.743 173.491 790.743 180.146 790.743 187.208C790.743 194.271 790.743 202.284 790.743 211.248C790.743 219.941 790.743 229.856 790.743 240.993C790.743 252.13 790.743 264.897 790.743 279.294C795.091 282.282 800.39 284.727 806.64 286.628C812.89 288.529 819.548 289.48 826.613 289.48Z" fill="#36434E"/>
<path d="M165.268 113.051C163.366 98.6541 159.425 86.1587 153.447 75.5648C147.469 64.6993 139.452 56.4143 129.398 50.7099C119.615 44.7338 107.795 41.7458 93.9357 41.7458C80.6203 41.7458 69.479 45.5487 60.5115 53.1546C51.8157 60.7605 47.4678 70.132 47.4678 81.2692C47.4678 90.5049 50.0494 98.5182 55.2125 105.309C60.6473 112.1 68.392 118.348 78.4464 124.052C88.5009 129.485 100.457 135.19 114.316 141.166C124.643 145.512 135.105 150.401 145.702 155.834C156.3 160.995 166.083 167.243 175.051 174.577C184.018 181.911 191.219 190.468 196.654 200.247C202.361 209.754 205.214 221.163 205.214 234.473C205.214 250.228 201.002 264.218 192.578 276.442C184.426 288.665 172.741 298.173 157.523 304.964C142.306 311.755 124.371 315.15 103.718 315.15C92.3052 315.15 80.2128 313.384 67.4409 309.853C54.669 306.593 42.9841 301.568 32.3862 294.777L33.609 312.298H5.89139L5.07615 219.805H28.3101C31.2992 242.894 39.8591 260.415 53.9897 272.367C68.1203 284.047 85.1041 289.888 104.941 289.888C114.996 289.888 123.963 288.122 131.844 284.591C139.724 280.788 145.838 275.762 150.186 269.515C154.806 262.995 157.116 255.661 157.116 247.512C157.116 236.918 153.855 228.226 147.333 221.435C140.811 214.644 132.523 208.804 122.469 203.914C112.414 199.025 101.952 194.271 91.0824 189.653C78.854 184.492 67.305 179.059 56.4353 173.355C45.5657 167.379 35.9188 160.723 27.4948 153.389C19.3426 145.783 12.8208 137.091 7.92943 127.312C3.30982 117.533 1 105.988 1 92.678C1 84.8005 2.49458 76.5155 5.48374 67.8231C8.4729 58.859 13.3643 50.574 20.1578 42.9682C27.2231 35.3623 36.5982 29.1146 48.2831 24.2251C59.968 19.3356 74.5062 16.8909 91.8976 16.8909C102.767 16.8909 114.588 18.5207 127.36 21.7803C140.404 24.7684 151.817 29.7937 161.599 36.8563L159.969 19.7431H188.094V113.051H165.268Z" stroke="#36434E" stroke-width="1.5" mask="url(#path-1-outside-1_220_10)"/>
<path d="M361.314 287.035C369.194 287.035 374.765 285.406 378.026 282.146C381.287 278.615 383.325 273.725 384.14 267.478C384.955 261.23 385.363 254.167 385.363 246.29V188.431C385.363 168.873 382.238 154.34 375.988 144.833C370.009 135.325 360.634 130.572 347.862 130.572C339.982 130.572 332.101 132.337 324.221 135.869C316.612 139.4 310.362 143.746 305.471 148.907V250.364C305.471 254.71 305.335 260.007 305.063 266.255C304.791 272.231 304.248 278.071 303.433 283.776C308.052 283.233 312.808 282.961 317.699 282.961C322.59 282.689 326.667 282.553 329.928 282.553V308.631H230.878V287.035C238.758 287.035 244.329 285.406 247.59 282.146C251.122 278.615 253.16 273.725 253.704 267.478C254.519 261.23 254.927 254.167 254.927 246.29V70.2678C254.927 65.65 255.063 60.6247 255.334 55.1919C255.606 49.4875 256.014 43.6473 256.557 37.6712C251.938 37.9428 246.91 38.2145 241.476 38.4861C236.041 38.7578 231.557 39.0294 228.024 39.3011V12.8163C240.524 12.8163 250.715 12.273 258.595 11.1865C266.476 9.82826 272.59 8.19844 276.938 6.29696C281.557 4.3955 284.818 2.62984 286.721 1H305.471V122.422C310.906 117.805 317.156 113.73 324.221 110.199C331.558 106.667 339.031 103.815 346.64 101.642C354.248 99.469 361.178 98.3824 367.428 98.3824C391.885 98.3824 409.276 105.581 419.602 119.978C429.929 134.375 435.227 157.328 435.499 188.838L435.907 250.364C435.907 254.71 435.771 260.007 435.499 266.255C435.227 272.231 434.82 278.071 434.276 283.776C438.624 283.233 443.108 282.961 447.728 282.961C452.619 282.689 456.831 282.553 460.364 282.553V308.631H361.314V287.035Z" stroke="#36434E" stroke-width="1.5" mask="url(#path-1-outside-1_220_10)"/>
<path d="M587.236 315.15C567.943 315.15 550.415 310.94 534.654 302.519C518.893 293.826 506.393 281.739 497.154 266.255C488.186 250.5 483.703 232.164 483.703 211.248C483.703 189.246 488.322 169.688 497.561 152.574C506.801 135.461 519.165 122.151 534.654 112.643C550.415 103.136 567.671 98.3824 586.421 98.3824C605.715 98.3824 623.106 102.729 638.595 111.421C654.085 120.114 666.313 132.201 675.281 147.685C684.52 163.168 689.139 181.504 689.139 202.692C689.139 224.966 684.656 244.66 675.688 261.773C666.992 278.615 654.9 291.789 639.411 301.297C624.193 310.532 606.802 315.15 587.236 315.15ZM589.274 290.295C601.503 290.295 610.878 286.492 617.4 278.886C623.921 271.28 628.405 261.637 630.851 249.957C633.568 238.005 634.927 225.781 634.927 213.286C634.927 202.692 633.976 191.962 632.074 181.096C630.443 170.231 627.726 160.452 623.921 151.759C620.117 142.795 615.09 135.733 608.84 130.572C602.59 125.139 594.981 122.422 586.013 122.422C574.057 122.694 564.546 126.633 557.481 134.239C550.415 141.845 545.252 151.488 541.991 163.168C539.002 174.849 537.507 187.208 537.507 200.247C537.507 214.915 539.274 229.312 542.806 243.437C546.339 257.291 551.91 268.7 559.518 277.664C567.127 286.356 577.046 290.567 589.274 290.295Z" stroke="#36434E" stroke-width="1.5" mask="url(#path-1-outside-1_220_10)"/>
<path d="M716.15 412.533V390.937C724.031 390.937 729.601 389.172 732.862 385.64C736.395 382.381 738.569 377.627 739.384 371.379C740.199 365.132 740.607 358.069 740.607 350.191L741.014 169.688C741.014 164.798 741.014 159.637 741.014 154.204C741.286 148.771 741.83 143.203 742.645 137.498C738.025 137.77 732.862 138.042 727.156 138.313C721.721 138.585 717.237 138.857 713.704 139.128V112.643C726.204 112.643 736.259 112.1 743.868 111.014C751.748 109.655 757.727 108.026 761.803 106.124C766.151 104.223 769.276 102.457 771.178 100.827H788.705C789.249 103.544 789.656 106.803 789.928 110.606C790.2 114.409 790.471 117.94 790.743 121.2C799.711 113.323 809.222 107.618 819.276 104.087C829.331 100.284 838.977 98.3824 848.216 98.3824C864.521 98.3824 879.059 102.593 891.831 111.014C904.603 119.163 914.657 130.979 921.994 146.462C929.331 161.674 933 179.738 933 200.654C933 222.929 928.516 242.758 919.549 260.143C910.853 277.257 898.896 290.703 883.679 300.482C868.461 310.261 850.934 315.15 831.097 315.15C822.945 315.15 815.607 314.199 809.086 312.298C802.564 310.668 796.45 308.495 790.743 305.779V354.266C790.743 358.612 790.607 363.773 790.336 369.749C790.336 375.997 789.928 381.973 789.113 387.678C793.461 387.134 798.08 386.727 802.971 386.455C807.863 386.455 811.939 386.455 815.2 386.455V412.533H716.15ZM826.613 289.48C839.113 289.209 849.168 285.406 856.776 278.071C864.657 270.466 870.363 260.415 873.896 247.92C877.429 235.424 879.195 221.842 879.195 207.174C879.195 193.863 877.429 181.232 873.896 169.28C870.635 157.328 865.336 147.685 857.999 140.351C850.662 133.016 840.879 129.349 828.651 129.349C821.042 129.621 813.841 131.522 807.048 135.054C800.526 138.585 795.091 143.203 790.743 148.907C790.743 154.883 790.743 160.995 790.743 167.243C790.743 173.491 790.743 180.146 790.743 187.208C790.743 194.271 790.743 202.284 790.743 211.248C790.743 219.941 790.743 229.856 790.743 240.993C790.743 252.13 790.743 264.897 790.743 279.294C795.091 282.282 800.39 284.727 806.64 286.628C812.89 288.529 819.548 289.48 826.613 289.48Z" stroke="#36434E" stroke-width="1.5" mask="url(#path-1-outside-1_220_10)"/>
<mask id="path-2-outside-2_220_10" maskUnits="userSpaceOnUse" x="0" y="375.223" width="680" height="190" fill="black">
<rect fill="white" y="375.223" width="680" height="190"/>
<path d="M1 513.739V502.934C4.62642 502.803 7.41097 502.214 9.3537 501.166C11.2964 499.987 12.6563 498.023 13.4334 495.272C14.2105 492.391 14.5991 488.462 14.5991 483.485V405.101C14.5991 401.827 14.6638 398.684 14.7934 395.672C15.0524 392.66 15.2467 390.302 15.3762 388.6C13.1744 388.731 10.6488 388.861 7.79951 388.992C4.95018 388.992 2.6837 389.058 1 389.189V376.223H52.6765V387.028C49.1796 387.159 46.395 387.814 44.3227 388.992C42.38 390.04 41.0201 391.939 40.243 394.69C39.4659 397.44 39.0774 401.369 39.0774 406.477V437.712H97.7477V405.101C97.7477 401.827 97.8124 398.684 97.9419 395.672C98.0715 392.66 98.2657 390.302 98.5247 388.6C96.323 388.731 93.7975 388.861 90.9481 388.992C88.0988 388.992 85.8323 389.058 84.1486 389.189V376.223H135.825V387.028C132.328 387.159 129.544 387.814 127.471 388.992C125.529 390.04 124.169 391.939 123.392 394.69C122.615 397.44 122.226 401.369 122.226 406.477V484.467C122.226 488.004 122.161 491.278 122.032 494.29C121.902 497.302 121.708 499.66 121.449 501.362C123.651 501.231 126.176 501.1 129.025 500.969C132.004 500.838 134.271 500.773 135.825 500.773V513.739H84.1486V502.934C87.7751 502.803 90.5596 502.214 92.5023 501.166C94.4451 499.987 95.8049 498.023 96.582 495.272C97.3591 492.391 97.7477 488.462 97.7477 483.485V450.285L39.0774 451.071V484.467C39.0774 488.004 39.0126 491.278 38.8831 494.29C38.7536 497.302 38.5594 499.66 38.3003 501.362C40.5021 501.231 43.0276 501.1 45.8769 500.969C48.7263 500.838 50.9928 500.773 52.6765 500.773V513.739H1Z"/>
<path d="M196.916 516.882C187.721 516.882 179.367 514.852 171.855 510.792C164.343 506.601 158.385 500.773 153.982 493.308C149.708 485.712 147.571 476.871 147.571 466.787C147.571 456.179 149.773 446.749 154.176 438.498C158.58 430.247 164.473 423.83 171.855 419.246C179.367 414.662 187.591 412.37 196.528 412.37C205.723 412.37 214.012 414.466 221.395 418.656C228.777 422.847 234.605 428.675 238.879 436.141C243.282 443.606 245.484 452.446 245.484 462.661C245.484 473.401 243.347 482.896 239.073 491.147C234.929 499.267 229.165 505.619 221.783 510.203C214.53 514.655 206.241 516.882 196.916 516.882ZM197.888 504.898C203.716 504.898 208.184 503.065 211.292 499.398C214.401 495.731 216.538 491.081 217.703 485.45C218.998 479.687 219.646 473.794 219.646 467.769C219.646 462.661 219.193 457.488 218.286 452.25C217.509 447.011 216.214 442.296 214.401 438.105C212.588 433.783 210.191 430.378 207.213 427.89C204.234 425.27 200.607 423.961 196.333 423.961C190.635 424.092 186.102 425.991 182.734 429.658C179.367 433.325 176.906 437.974 175.352 443.606C173.927 449.237 173.215 455.196 173.215 461.483C173.215 468.555 174.057 475.496 175.741 482.307C177.424 488.986 180.079 494.486 183.706 498.808C187.332 502.999 192.059 505.029 197.888 504.898Z"/>
<path d="M258.358 563.834V553.422C262.114 553.422 264.769 552.57 266.323 550.868C268.007 549.296 269.043 547.004 269.431 543.992C269.82 540.98 270.014 537.575 270.014 533.777L270.208 446.749C270.208 444.392 270.208 441.903 270.208 439.284C270.338 436.664 270.597 433.98 270.986 431.229C268.784 431.36 266.323 431.491 263.603 431.622C261.013 431.753 258.876 431.884 257.192 432.015V419.246C263.15 419.246 267.942 418.984 271.568 418.46C275.324 417.805 278.174 417.019 280.116 416.103C282.189 415.186 283.678 414.335 284.585 413.549H292.938C293.197 414.858 293.392 416.43 293.521 418.264C293.651 420.097 293.78 421.8 293.91 423.371C298.184 419.573 302.717 416.823 307.509 415.12C312.301 413.287 316.899 412.37 321.302 412.37C329.073 412.37 336.002 414.4 342.089 418.46C348.177 422.389 352.969 428.086 356.465 435.551C359.962 442.885 361.711 451.595 361.711 461.679C361.711 472.418 359.574 481.979 355.3 490.361C351.155 498.612 345.457 505.095 338.204 509.81C330.951 514.524 322.597 516.882 313.143 516.882C309.257 516.882 305.76 516.423 302.652 515.507C299.544 514.721 296.63 513.673 293.91 512.363V535.741C293.91 537.837 293.845 540.325 293.715 543.206C293.715 546.218 293.521 549.1 293.133 551.85C295.205 551.588 297.407 551.392 299.738 551.261C302.069 551.261 304.012 551.261 305.566 551.261V563.834H258.358ZM311.006 504.505C316.963 504.374 321.755 502.541 325.382 499.005C329.138 495.338 331.858 490.492 333.541 484.467C335.225 478.443 336.067 471.895 336.067 464.822C336.067 458.405 335.225 452.315 333.541 446.552C331.987 440.79 329.462 436.141 325.965 432.605C322.468 429.068 317.805 427.3 311.977 427.3C308.351 427.431 304.918 428.348 301.681 430.051C298.572 431.753 295.982 433.98 293.91 436.73C293.91 439.611 293.91 442.558 293.91 445.57C293.91 448.582 293.91 451.791 293.91 455.196C293.91 458.601 293.91 462.465 293.91 466.787C293.91 470.978 293.91 475.758 293.91 481.128C293.91 486.497 293.91 492.653 293.91 499.594C295.982 501.035 298.507 502.214 301.486 503.13C304.465 504.047 307.638 504.505 311.006 504.505Z"/>
<path d="M374.845 563.834V553.422C378.601 553.422 381.256 552.57 382.811 550.868C384.494 549.296 385.53 547.004 385.919 543.992C386.308 540.98 386.502 537.575 386.502 533.777L386.696 446.749C386.696 444.392 386.696 441.903 386.696 439.284C386.826 436.664 387.085 433.98 387.473 431.229C385.271 431.36 382.811 431.491 380.091 431.622C377.501 431.753 375.363 431.884 373.68 432.015V419.246C379.637 419.246 384.43 418.984 388.056 418.46C391.812 417.805 394.661 417.019 396.604 416.103C398.676 415.186 400.166 414.335 401.072 413.549H409.426C409.685 414.858 409.879 416.43 410.009 418.264C410.138 420.097 410.268 421.8 410.397 423.371C414.671 419.573 419.204 416.823 423.996 415.12C428.788 413.287 433.386 412.37 437.79 412.37C445.561 412.37 452.49 414.4 458.577 418.46C464.664 422.389 469.456 428.086 472.953 435.551C476.45 442.885 478.198 451.595 478.198 461.679C478.198 472.418 476.061 481.979 471.787 490.361C467.643 498.612 461.944 505.095 454.691 509.81C447.439 514.524 439.085 516.882 429.63 516.882C425.745 516.882 422.248 516.423 419.14 515.507C416.031 514.721 413.117 513.673 410.397 512.363V535.741C410.397 537.837 410.333 540.325 410.203 543.206C410.203 546.218 410.009 549.1 409.62 551.85C411.692 551.588 413.894 551.392 416.226 551.261C418.557 551.261 420.5 551.261 422.054 551.261V563.834H374.845ZM427.493 504.505C433.451 504.374 438.243 502.541 441.869 499.005C445.625 495.338 448.345 490.492 450.029 484.467C451.713 478.443 452.554 471.895 452.554 464.822C452.554 458.405 451.713 452.315 450.029 446.552C448.475 440.79 445.949 436.141 442.452 432.605C438.955 429.068 434.293 427.3 428.465 427.3C424.838 427.431 421.406 428.348 418.168 430.051C415.06 431.753 412.47 433.98 410.397 436.73C410.397 439.611 410.397 442.558 410.397 445.57C410.397 448.582 410.397 451.791 410.397 455.196C410.397 458.601 410.397 462.465 410.397 466.787C410.397 470.978 410.397 475.758 410.397 481.128C410.397 486.497 410.397 492.653 410.397 499.594C412.47 501.035 414.995 502.214 417.974 503.13C420.953 504.047 424.126 504.505 427.493 504.505Z"/>
<path d="M539.707 516.882C530.382 516.882 522.093 514.786 514.84 510.595C507.587 506.274 501.953 500.249 497.938 492.522C493.923 484.664 491.916 475.431 491.916 464.822C491.916 455.655 493.923 447.076 497.938 439.087C501.953 431.098 507.587 424.681 514.84 419.835C522.222 414.858 530.77 412.37 540.484 412.37C545.924 412.37 551.169 413.156 556.22 414.727C561.271 416.299 565.804 418.918 569.819 422.585C573.834 426.253 577.007 431.098 579.338 437.123C581.799 443.147 582.965 450.482 582.835 459.125L517.56 460.304C517.56 468.424 518.466 475.627 520.28 481.914C522.222 488.069 525.331 492.98 529.605 496.647C533.879 500.184 539.513 501.952 546.506 501.952C549.615 501.952 552.917 501.428 556.414 500.38C560.041 499.201 563.602 497.499 567.099 495.272C570.596 492.915 573.705 490.034 576.424 486.628L583.807 493.504C579.533 499.791 574.805 504.636 569.625 508.042C564.444 511.447 559.264 513.739 554.083 514.917C548.902 516.227 544.11 516.882 539.707 516.882ZM518.531 448.517H558.94C558.81 443.278 558.033 438.891 556.609 435.355C555.313 431.688 553.371 428.937 550.78 427.104C548.19 425.139 545.017 424.157 541.261 424.157C534.915 424.157 529.799 426.318 525.913 430.64C522.158 434.831 519.697 440.79 518.531 448.517Z"/>
<path d="M598.001 503.327C601.757 503.327 604.412 502.541 605.966 500.969C607.52 499.267 608.492 496.909 608.88 493.897C609.269 490.885 609.463 487.48 609.463 483.682V446.749C609.463 444.392 609.528 441.903 609.657 439.284C609.787 436.664 609.981 433.98 610.24 431.229C608.038 431.36 605.642 431.491 603.052 431.622C600.462 431.622 598.325 431.688 596.641 431.819V419.246H603.829C609.01 419.246 613.348 418.656 616.845 417.478C620.342 416.168 622.803 414.858 624.228 413.549H632.387C632.646 415.12 632.84 417.609 632.97 421.014C633.099 424.419 633.164 427.824 633.164 431.229C636.143 427.3 639.251 423.961 642.489 421.21C645.727 418.329 649.03 416.168 652.397 414.727C655.894 413.156 659.456 412.37 663.082 412.37C667.227 412.37 670.853 413.549 673.961 415.906C677.199 418.264 678.818 422.062 678.818 427.3C678.818 429.003 678.365 430.836 677.458 432.801C676.681 434.765 675.386 436.403 673.573 437.712C671.889 439.022 669.558 439.677 666.579 439.677C663.859 439.677 661.269 438.825 658.808 437.123C656.477 435.289 655.246 432.408 655.117 428.479C652.397 428.348 649.548 429.33 646.569 431.426C643.719 433.521 641.129 436.075 638.798 439.087C636.467 442.1 634.654 445.177 633.358 448.321L633.553 485.646C633.553 487.742 633.488 490.296 633.358 493.308C633.229 496.189 633.035 499.005 632.776 501.755C634.848 501.493 637.049 501.362 639.381 501.362C641.712 501.231 643.655 501.166 645.209 501.166V513.739H598.001V503.327Z"/>
</mask>
<path d="M1 513.739V502.934C4.62642 502.803 7.41097 502.214 9.3537 501.166C11.2964 499.987 12.6563 498.023 13.4334 495.272C14.2105 492.391 14.5991 488.462 14.5991 483.485V405.101C14.5991 401.827 14.6638 398.684 14.7934 395.672C15.0524 392.66 15.2467 390.302 15.3762 388.6C13.1744 388.731 10.6488 388.861 7.79951 388.992C4.95018 388.992 2.6837 389.058 1 389.189V376.223H52.6765V387.028C49.1796 387.159 46.395 387.814 44.3227 388.992C42.38 390.04 41.0201 391.939 40.243 394.69C39.4659 397.44 39.0774 401.369 39.0774 406.477V437.712H97.7477V405.101C97.7477 401.827 97.8124 398.684 97.9419 395.672C98.0715 392.66 98.2657 390.302 98.5247 388.6C96.323 388.731 93.7975 388.861 90.9481 388.992C88.0988 388.992 85.8323 389.058 84.1486 389.189V376.223H135.825V387.028C132.328 387.159 129.544 387.814 127.471 388.992C125.529 390.04 124.169 391.939 123.392 394.69C122.615 397.44 122.226 401.369 122.226 406.477V484.467C122.226 488.004 122.161 491.278 122.032 494.29C121.902 497.302 121.708 499.66 121.449 501.362C123.651 501.231 126.176 501.1 129.025 500.969C132.004 500.838 134.271 500.773 135.825 500.773V513.739H84.1486V502.934C87.7751 502.803 90.5596 502.214 92.5023 501.166C94.4451 499.987 95.8049 498.023 96.582 495.272C97.3591 492.391 97.7477 488.462 97.7477 483.485V450.285L39.0774 451.071V484.467C39.0774 488.004 39.0126 491.278 38.8831 494.29C38.7536 497.302 38.5594 499.66 38.3003 501.362C40.5021 501.231 43.0276 501.1 45.8769 500.969C48.7263 500.838 50.9928 500.773 52.6765 500.773V513.739H1Z" fill="#36434E"/>
<path d="M196.916 516.882C187.721 516.882 179.367 514.852 171.855 510.792C164.343 506.601 158.385 500.773 153.982 493.308C149.708 485.712 147.571 476.871 147.571 466.787C147.571 456.179 149.773 446.749 154.176 438.498C158.58 430.247 164.473 423.83 171.855 419.246C179.367 414.662 187.591 412.37 196.528 412.37C205.723 412.37 214.012 414.466 221.395 418.656C228.777 422.847 234.605 428.675 238.879 436.141C243.282 443.606 245.484 452.446 245.484 462.661C245.484 473.401 243.347 482.896 239.073 491.147C234.929 499.267 229.165 505.619 221.783 510.203C214.53 514.655 206.241 516.882 196.916 516.882ZM197.888 504.898C203.716 504.898 208.184 503.065 211.292 499.398C214.401 495.731 216.538 491.081 217.703 485.45C218.998 479.687 219.646 473.794 219.646 467.769C219.646 462.661 219.193 457.488 218.286 452.25C217.509 447.011 216.214 442.296 214.401 438.105C212.588 433.783 210.191 430.378 207.213 427.89C204.234 425.27 200.607 423.961 196.333 423.961C190.635 424.092 186.102 425.991 182.734 429.658C179.367 433.325 176.906 437.974 175.352 443.606C173.927 449.237 173.215 455.196 173.215 461.483C173.215 468.555 174.057 475.496 175.741 482.307C177.424 488.986 180.079 494.486 183.706 498.808C187.332 502.999 192.059 505.029 197.888 504.898Z" fill="#36434E"/>
<path d="M258.358 563.834V553.422C262.114 553.422 264.769 552.57 266.323 550.868C268.007 549.296 269.043 547.004 269.431 543.992C269.82 540.98 270.014 537.575 270.014 533.777L270.208 446.749C270.208 444.392 270.208 441.903 270.208 439.284C270.338 436.664 270.597 433.98 270.986 431.229C268.784 431.36 266.323 431.491 263.603 431.622C261.013 431.753 258.876 431.884 257.192 432.015V419.246C263.15 419.246 267.942 418.984 271.568 418.46C275.324 417.805 278.174 417.019 280.116 416.103C282.189 415.186 283.678 414.335 284.585 413.549H292.938C293.197 414.858 293.392 416.43 293.521 418.264C293.651 420.097 293.78 421.8 293.91 423.371C298.184 419.573 302.717 416.823 307.509 415.12C312.301 413.287 316.899 412.37 321.302 412.37C329.073 412.37 336.002 414.4 342.089 418.46C348.177 422.389 352.969 428.086 356.465 435.551C359.962 442.885 361.711 451.595 361.711 461.679C361.711 472.418 359.574 481.979 355.3 490.361C351.155 498.612 345.457 505.095 338.204 509.81C330.951 514.524 322.597 516.882 313.143 516.882C309.257 516.882 305.76 516.423 302.652 515.507C299.544 514.721 296.63 513.673 293.91 512.363V535.741C293.91 537.837 293.845 540.325 293.715 543.206C293.715 546.218 293.521 549.1 293.133 551.85C295.205 551.588 297.407 551.392 299.738 551.261C302.069 551.261 304.012 551.261 305.566 551.261V563.834H258.358ZM311.006 504.505C316.963 504.374 321.755 502.541 325.382 499.005C329.138 495.338 331.858 490.492 333.541 484.467C335.225 478.443 336.067 471.895 336.067 464.822C336.067 458.405 335.225 452.315 333.541 446.552C331.987 440.79 329.462 436.141 325.965 432.605C322.468 429.068 317.805 427.3 311.977 427.3C308.351 427.431 304.918 428.348 301.681 430.051C298.572 431.753 295.982 433.98 293.91 436.73C293.91 439.611 293.91 442.558 293.91 445.57C293.91 448.582 293.91 451.791 293.91 455.196C293.91 458.601 293.91 462.465 293.91 466.787C293.91 470.978 293.91 475.758 293.91 481.128C293.91 486.497 293.91 492.653 293.91 499.594C295.982 501.035 298.507 502.214 301.486 503.13C304.465 504.047 307.638 504.505 311.006 504.505Z" fill="#36434E"/>
<path d="M374.845 563.834V553.422C378.601 553.422 381.256 552.57 382.811 550.868C384.494 549.296 385.53 547.004 385.919 543.992C386.308 540.98 386.502 537.575 386.502 533.777L386.696 446.749C386.696 444.392 386.696 441.903 386.696 439.284C386.826 436.664 387.085 433.98 387.473 431.229C385.271 431.36 382.811 431.491 380.091 431.622C377.501 431.753 375.363 431.884 373.68 432.015V419.246C379.637 419.246 384.43 418.984 388.056 418.46C391.812 417.805 394.661 417.019 396.604 416.103C398.676 415.186 400.166 414.335 401.072 413.549H409.426C409.685 414.858 409.879 416.43 410.009 418.264C410.138 420.097 410.268 421.8 410.397 423.371C414.671 419.573 419.204 416.823 423.996 415.12C428.788 413.287 433.386 412.37 437.79 412.37C445.561 412.37 452.49 414.4 458.577 418.46C464.664 422.389 469.456 428.086 472.953 435.551C476.45 442.885 478.198 451.595 478.198 461.679C478.198 472.418 476.061 481.979 471.787 490.361C467.643 498.612 461.944 505.095 454.691 509.81C447.439 514.524 439.085 516.882 429.63 516.882C425.745 516.882 422.248 516.423 419.14 515.507C416.031 514.721 413.117 513.673 410.397 512.363V535.741C410.397 537.837 410.333 540.325 410.203 543.206C410.203 546.218 410.009 549.1 409.62 551.85C411.692 551.588 413.894 551.392 416.226 551.261C418.557 551.261 420.5 551.261 422.054 551.261V563.834H374.845ZM427.493 504.505C433.451 504.374 438.243 502.541 441.869 499.005C445.625 495.338 448.345 490.492 450.029 484.467C451.713 478.443 452.554 471.895 452.554 464.822C452.554 458.405 451.713 452.315 450.029 446.552C448.475 440.79 445.949 436.141 442.452 432.605C438.955 429.068 434.293 427.3 428.465 427.3C424.838 427.431 421.406 428.348 418.168 430.051C415.06 431.753 412.47 433.98 410.397 436.73C410.397 439.611 410.397 442.558 410.397 445.57C410.397 448.582 410.397 451.791 410.397 455.196C410.397 458.601 410.397 462.465 410.397 466.787C410.397 470.978 410.397 475.758 410.397 481.128C410.397 486.497 410.397 492.653 410.397 499.594C412.47 501.035 414.995 502.214 417.974 503.13C420.953 504.047 424.126 504.505 427.493 504.505Z" fill="#36434E"/>
<path d="M539.707 516.882C530.382 516.882 522.093 514.786 514.84 510.595C507.587 506.274 501.953 500.249 497.938 492.522C493.923 484.664 491.916 475.431 491.916 464.822C491.916 455.655 493.923 447.076 497.938 439.087C501.953 431.098 507.587 424.681 514.84 419.835C522.222 414.858 530.77 412.37 540.484 412.37C545.924 412.37 551.169 413.156 556.22 414.727C561.271 416.299 565.804 418.918 569.819 422.585C573.834 426.253 577.007 431.098 579.338 437.123C581.799 443.147 582.965 450.482 582.835 459.125L517.56 460.304C517.56 468.424 518.466 475.627 520.28 481.914C522.222 488.069 525.331 492.98 529.605 496.647C533.879 500.184 539.513 501.952 546.506 501.952C549.615 501.952 552.917 501.428 556.414 500.38C560.041 499.201 563.602 497.499 567.099 495.272C570.596 492.915 573.705 490.034 576.424 486.628L583.807 493.504C579.533 499.791 574.805 504.636 569.625 508.042C564.444 511.447 559.264 513.739 554.083 514.917C548.902 516.227 544.11 516.882 539.707 516.882ZM518.531 448.517H558.94C558.81 443.278 558.033 438.891 556.609 435.355C555.313 431.688 553.371 428.937 550.78 427.104C548.19 425.139 545.017 424.157 541.261 424.157C534.915 424.157 529.799 426.318 525.913 430.64C522.158 434.831 519.697 440.79 518.531 448.517Z" fill="#36434E"/>
<path d="M598.001 503.327C601.757 503.327 604.412 502.541 605.966 500.969C607.52 499.267 608.492 496.909 608.88 493.897C609.269 490.885 609.463 487.48 609.463 483.682V446.749C609.463 444.392 609.528 441.903 609.657 439.284C609.787 436.664 609.981 433.98 610.24 431.229C608.038 431.36 605.642 431.491 603.052 431.622C600.462 431.622 598.325 431.688 596.641 431.819V419.246H603.829C609.01 419.246 613.348 418.656 616.845 417.478C620.342 416.168 622.803 414.858 624.228 413.549H632.387C632.646 415.12 632.84 417.609 632.97 421.014C633.099 424.419 633.164 427.824 633.164 431.229C636.143 427.3 639.251 423.961 642.489 421.21C645.727 418.329 649.03 416.168 652.397 414.727C655.894 413.156 659.456 412.37 663.082 412.37C667.227 412.37 670.853 413.549 673.961 415.906C677.199 418.264 678.818 422.062 678.818 427.3C678.818 429.003 678.365 430.836 677.458 432.801C676.681 434.765 675.386 436.403 673.573 437.712C671.889 439.022 669.558 439.677 666.579 439.677C663.859 439.677 661.269 438.825 658.808 437.123C656.477 435.289 655.246 432.408 655.117 428.479C652.397 428.348 649.548 429.33 646.569 431.426C643.719 433.521 641.129 436.075 638.798 439.087C636.467 442.1 634.654 445.177 633.358 448.321L633.553 485.646C633.553 487.742 633.488 490.296 633.358 493.308C633.229 496.189 633.035 499.005 632.776 501.755C634.848 501.493 637.049 501.362 639.381 501.362C641.712 501.231 643.655 501.166 645.209 501.166V513.739H598.001V503.327Z" fill="#36434E"/>
<path d="M1 513.739V502.934C4.62642 502.803 7.41097 502.214 9.3537 501.166C11.2964 499.987 12.6563 498.023 13.4334 495.272C14.2105 492.391 14.5991 488.462 14.5991 483.485V405.101C14.5991 401.827 14.6638 398.684 14.7934 395.672C15.0524 392.66 15.2467 390.302 15.3762 388.6C13.1744 388.731 10.6488 388.861 7.79951 388.992C4.95018 388.992 2.6837 389.058 1 389.189V376.223H52.6765V387.028C49.1796 387.159 46.395 387.814 44.3227 388.992C42.38 390.04 41.0201 391.939 40.243 394.69C39.4659 397.44 39.0774 401.369 39.0774 406.477V437.712H97.7477V405.101C97.7477 401.827 97.8124 398.684 97.9419 395.672C98.0715 392.66 98.2657 390.302 98.5247 388.6C96.323 388.731 93.7975 388.861 90.9481 388.992C88.0988 388.992 85.8323 389.058 84.1486 389.189V376.223H135.825V387.028C132.328 387.159 129.544 387.814 127.471 388.992C125.529 390.04 124.169 391.939 123.392 394.69C122.615 397.44 122.226 401.369 122.226 406.477V484.467C122.226 488.004 122.161 491.278 122.032 494.29C121.902 497.302 121.708 499.66 121.449 501.362C123.651 501.231 126.176 501.1 129.025 500.969C132.004 500.838 134.271 500.773 135.825 500.773V513.739H84.1486V502.934C87.7751 502.803 90.5596 502.214 92.5023 501.166C94.4451 499.987 95.8049 498.023 96.582 495.272C97.3591 492.391 97.7477 488.462 97.7477 483.485V450.285L39.0774 451.071V484.467C39.0774 488.004 39.0126 491.278 38.8831 494.29C38.7536 497.302 38.5594 499.66 38.3003 501.362C40.5021 501.231 43.0276 501.1 45.8769 500.969C48.7263 500.838 50.9928 500.773 52.6765 500.773V513.739H1Z" stroke="#36434E" stroke-width="1.5" mask="url(#path-2-outside-2_220_10)"/>
<path d="M196.916 516.882C187.721 516.882 179.367 514.852 171.855 510.792C164.343 506.601 158.385 500.773 153.982 493.308C149.708 485.712 147.571 476.871 147.571 466.787C147.571 456.179 149.773 446.749 154.176 438.498C158.58 430.247 164.473 423.83 171.855 419.246C179.367 414.662 187.591 412.37 196.528 412.37C205.723 412.37 214.012 414.466 221.395 418.656C228.777 422.847 234.605 428.675 238.879 436.141C243.282 443.606 245.484 452.446 245.484 462.661C245.484 473.401 243.347 482.896 239.073 491.147C234.929 499.267 229.165 505.619 221.783 510.203C214.53 514.655 206.241 516.882 196.916 516.882ZM197.888 504.898C203.716 504.898 208.184 503.065 211.292 499.398C214.401 495.731 216.538 491.081 217.703 485.45C218.998 479.687 219.646 473.794 219.646 467.769C219.646 462.661 219.193 457.488 218.286 452.25C217.509 447.011 216.214 442.296 214.401 438.105C212.588 433.783 210.191 430.378 207.213 427.89C204.234 425.27 200.607 423.961 196.333 423.961C190.635 424.092 186.102 425.991 182.734 429.658C179.367 433.325 176.906 437.974 175.352 443.606C173.927 449.237 173.215 455.196 173.215 461.483C173.215 468.555 174.057 475.496 175.741 482.307C177.424 488.986 180.079 494.486 183.706 498.808C187.332 502.999 192.059 505.029 197.888 504.898Z" stroke="#36434E" stroke-width="1.5" mask="url(#path-2-outside-2_220_10)"/>
<path d="M258.358 563.834V553.422C262.114 553.422 264.769 552.57 266.323 550.868C268.007 549.296 269.043 547.004 269.431 543.992C269.82 540.98 270.014 537.575 270.014 533.777L270.208 446.749C270.208 444.392 270.208 441.903 270.208 439.284C270.338 436.664 270.597 433.98 270.986 431.229C268.784 431.36 266.323 431.491 263.603 431.622C261.013 431.753 258.876 431.884 257.192 432.015V419.246C263.15 419.246 267.942 418.984 271.568 418.46C275.324 417.805 278.174 417.019 280.116 416.103C282.189 415.186 283.678 414.335 284.585 413.549H292.938C293.197 414.858 293.392 416.43 293.521 418.264C293.651 420.097 293.78 421.8 293.91 423.371C298.184 419.573 302.717 416.823 307.509 415.12C312.301 413.287 316.899 412.37 321.302 412.37C329.073 412.37 336.002 414.4 342.089 418.46C348.177 422.389 352.969 428.086 356.465 435.551C359.962 442.885 361.711 451.595 361.711 461.679C361.711 472.418 359.574 481.979 355.3 490.361C351.155 498.612 345.457 505.095 338.204 509.81C330.951 514.524 322.597 516.882 313.143 516.882C309.257 516.882 305.76 516.423 302.652 515.507C299.544 514.721 296.63 513.673 293.91 512.363V535.741C293.91 537.837 293.845 540.325 293.715 543.206C293.715 546.218 293.521 549.1 293.133 551.85C295.205 551.588 297.407 551.392 299.738 551.261C302.069 551.261 304.012 551.261 305.566 551.261V563.834H258.358ZM311.006 504.505C316.963 504.374 321.755 502.541 325.382 499.005C329.138 495.338 331.858 490.492 333.541 484.467C335.225 478.443 336.067 471.895 336.067 464.822C336.067 458.405 335.225 452.315 333.541 446.552C331.987 440.79 329.462 436.141 325.965 432.605C322.468 429.068 317.805 427.3 311.977 427.3C308.351 427.431 304.918 428.348 301.681 430.051C298.572 431.753 295.982 433.98 293.91 436.73C293.91 439.611 293.91 442.558 293.91 445.57C293.91 448.582 293.91 451.791 293.91 455.196C293.91 458.601 293.91 462.465 293.91 466.787C293.91 470.978 293.91 475.758 293.91 481.128C293.91 486.497 293.91 492.653 293.91 499.594C295.982 501.035 298.507 502.214 301.486 503.13C304.465 504.047 307.638 504.505 311.006 504.505Z" stroke="#36434E" stroke-width="1.5" mask="url(#path-2-outside-2_220_10)"/>
<path d="M374.845 563.834V553.422C378.601 553.422 381.256 552.57 382.811 550.868C384.494 549.296 385.53 547.004 385.919 543.992C386.308 540.98 386.502 537.575 386.502 533.777L386.696 446.749C386.696 444.392 386.696 441.903 386.696 439.284C386.826 436.664 387.085 433.98 387.473 431.229C385.271 431.36 382.811 431.491 380.091 431.622C377.501 431.753 375.363 431.884 373.68 432.015V419.246C379.637 419.246 384.43 418.984 388.056 418.46C391.812 417.805 394.661 417.019 396.604 416.103C398.676 415.186 400.166 414.335 401.072 413.549H409.426C409.685 414.858 409.879 416.43 410.009 418.264C410.138 420.097 410.268 421.8 410.397 423.371C414.671 419.573 419.204 416.823 423.996 415.12C428.788 413.287 433.386 412.37 437.79 412.37C445.561 412.37 452.49 414.4 458.577 418.46C464.664 422.389 469.456 428.086 472.953 435.551C476.45 442.885 478.198 451.595 478.198 461.679C478.198 472.418 476.061 481.979 471.787 490.361C467.643 498.612 461.944 505.095 454.691 509.81C447.439 514.524 439.085 516.882 429.63 516.882C425.745 516.882 422.248 516.423 419.14 515.507C416.031 514.721 413.117 513.673 410.397 512.363V535.741C410.397 537.837 410.333 540.325 410.203 543.206C410.203 546.218 410.009 549.1 409.62 551.85C411.692 551.588 413.894 551.392 416.226 551.261C418.557 551.261 420.5 551.261 422.054 551.261V563.834H374.845ZM427.493 504.505C433.451 504.374 438.243 502.541 441.869 499.005C445.625 495.338 448.345 490.492 450.029 484.467C451.713 478.443 452.554 471.895 452.554 464.822C452.554 458.405 451.713 452.315 450.029 446.552C448.475 440.79 445.949 436.141 442.452 432.605C438.955 429.068 434.293 427.3 428.465 427.3C424.838 427.431 421.406 428.348 418.168 430.051C415.06 431.753 412.47 433.98 410.397 436.73C410.397 439.611 410.397 442.558 410.397 445.57C410.397 448.582 410.397 451.791 410.397 455.196C410.397 458.601 410.397 462.465 410.397 466.787C410.397 470.978 410.397 475.758 410.397 481.128C410.397 486.497 410.397 492.653 410.397 499.594C412.47 501.035 414.995 502.214 417.974 503.13C420.953 504.047 424.126 504.505 427.493 504.505Z" stroke="#36434E" stroke-width="1.5" mask="url(#path-2-outside-2_220_10)"/>
<path d="M539.707 516.882C530.382 516.882 522.093 514.786 514.84 510.595C507.587 506.274 501.953 500.249 497.938 492.522C493.923 484.664 491.916 475.431 491.916 464.822C491.916 455.655 493.923 447.076 497.938 439.087C501.953 431.098 507.587 424.681 514.84 419.835C522.222 414.858 530.77 412.37 540.484 412.37C545.924 412.37 551.169 413.156 556.22 414.727C561.271 416.299 565.804 418.918 569.819 422.585C573.834 426.253 577.007 431.098 579.338 437.123C581.799 443.147 582.965 450.482 582.835 459.125L517.56 460.304C517.56 468.424 518.466 475.627 520.28 481.914C522.222 488.069 525.331 492.98 529.605 496.647C533.879 500.184 539.513 501.952 546.506 501.952C549.615 501.952 552.917 501.428 556.414 500.38C560.041 499.201 563.602 497.499 567.099 495.272C570.596 492.915 573.705 490.034 576.424 486.628L583.807 493.504C579.533 499.791 574.805 504.636 569.625 508.042C564.444 511.447 559.264 513.739 554.083 514.917C548.902 516.227 544.11 516.882 539.707 516.882ZM518.531 448.517H558.94C558.81 443.278 558.033 438.891 556.609 435.355C555.313 431.688 553.371 428.937 550.78 427.104C548.19 425.139 545.017 424.157 541.261 424.157C534.915 424.157 529.799 426.318 525.913 430.64C522.158 434.831 519.697 440.79 518.531 448.517Z" stroke="#36434E" stroke-width="1.5" mask="url(#path-2-outside-2_220_10)"/>
<path d="M598.001 503.327C601.757 503.327 604.412 502.541 605.966 500.969C607.52 499.267 608.492 496.909 608.88 493.897C609.269 490.885 609.463 487.48 609.463 483.682V446.749C609.463 444.392 609.528 441.903 609.657 439.284C609.787 436.664 609.981 433.98 610.24 431.229C608.038 431.36 605.642 431.491 603.052 431.622C600.462 431.622 598.325 431.688 596.641 431.819V419.246H603.829C609.01 419.246 613.348 418.656 616.845 417.478C620.342 416.168 622.803 414.858 624.228 413.549H632.387C632.646 415.12 632.84 417.609 632.97 421.014C633.099 424.419 633.164 427.824 633.164 431.229C636.143 427.3 639.251 423.961 642.489 421.21C645.727 418.329 649.03 416.168 652.397 414.727C655.894 413.156 659.456 412.37 663.082 412.37C667.227 412.37 670.853 413.549 673.961 415.906C677.199 418.264 678.818 422.062 678.818 427.3C678.818 429.003 678.365 430.836 677.458 432.801C676.681 434.765 675.386 436.403 673.573 437.712C671.889 439.022 669.558 439.677 666.579 439.677C663.859 439.677 661.269 438.825 658.808 437.123C656.477 435.289 655.246 432.408 655.117 428.479C652.397 428.348 649.548 429.33 646.569 431.426C643.719 433.521 641.129 436.075 638.798 439.087C636.467 442.1 634.654 445.177 633.358 448.321L633.553 485.646C633.553 487.742 633.488 490.296 633.358 493.308C633.229 496.189 633.035 499.005 632.776 501.755C634.848 501.493 637.049 501.362 639.381 501.362C641.712 501.231 643.655 501.166 645.209 501.166V513.739H598.001V503.327Z" stroke="#36434E" stroke-width="1.5" mask="url(#path-2-outside-2_220_10)"/>
<path d="M803.781 501.036C804.199 511.189 800.431 521.343 792.895 528.111C777.823 541.226 756.052 541.226 740.98 528.111C726.327 513.305 726.327 489.191 740.98 473.961C756.052 460.847 777.823 460.847 792.895 473.961C800.431 480.73 804.199 490.883 803.781 501.036Z" fill="#E18D7A"/>
</svg>
